<mxfile host="app.diagrams.net" agent="Mozilla/5.0 (Macintosh; Intel Mac OS X 10_15_7) AppleWebKit/537.36 (KHTML, like Gecko) Chrome/127.0.0.0 Safari/537.36" version="24.7.6">
  <diagram name="第 1 页" id="KIoUpXl7gweC_SfFAV-K">
    <mxGraphModel dx="465" dy="262" grid="1" gridSize="10" guides="1" tooltips="1" connect="1" arrows="1" fold="1" page="1" pageScale="1" pageWidth="827" pageHeight="1169" math="0" shadow="0">
      <root>
        <mxCell id="0" />
        <mxCell id="1" parent="0" />
        <mxCell id="YO1lThcP8_eCA4LxyVWl-1" value="Java App" style="rounded=0;whiteSpace=wrap;html=1;" vertex="1" parent="1">
          <mxGeometry x="270" y="70" width="480" height="60" as="geometry" />
        </mxCell>
        <mxCell id="YO1lThcP8_eCA4LxyVWl-2" value="&lt;h1&gt;VM&lt;/h1&gt;" style="rounded=0;whiteSpace=wrap;html=1;align=left;" vertex="1" parent="1">
          <mxGeometry x="270" y="160" width="480" height="220" as="geometry" />
        </mxCell>
        <mxCell id="YO1lThcP8_eCA4LxyVWl-10" value="agent&amp;nbsp;" style="rounded=0;whiteSpace=wrap;html=1;" vertex="1" parent="1">
          <mxGeometry x="330" y="180" width="400" height="60" as="geometry" />
        </mxCell>
        <mxCell id="YO1lThcP8_eCA4LxyVWl-11" value="&lt;h2&gt;docker&lt;/h2&gt;" style="rounded=0;whiteSpace=wrap;html=1;align=left;" vertex="1" parent="1">
          <mxGeometry x="330" y="300" width="400" height="60" as="geometry" />
        </mxCell>
        <mxCell id="YO1lThcP8_eCA4LxyVWl-13" value="" style="shape=flexArrow;endArrow=classic;html=1;rounded=0;" edge="1" parent="1">
          <mxGeometry width="50" height="50" relative="1" as="geometry">
            <mxPoint x="520" y="130" as="sourcePoint" />
            <mxPoint x="520" y="183" as="targetPoint" />
          </mxGeometry>
        </mxCell>
        <mxCell id="YO1lThcP8_eCA4LxyVWl-14" value="" style="shape=flexArrow;endArrow=classic;html=1;rounded=0;" edge="1" parent="1">
          <mxGeometry width="50" height="50" relative="1" as="geometry">
            <mxPoint x="520" y="247" as="sourcePoint" />
            <mxPoint x="520" y="300" as="targetPoint" />
          </mxGeometry>
        </mxCell>
        <mxCell id="YO1lThcP8_eCA4LxyVWl-15" value="区块链节点" style="rounded=0;whiteSpace=wrap;html=1;" vertex="1" parent="1">
          <mxGeometry x="430" y="310" width="80" height="40" as="geometry" />
        </mxCell>
        <mxCell id="YO1lThcP8_eCA4LxyVWl-16" value="数据库" style="rounded=0;whiteSpace=wrap;html=1;" vertex="1" parent="1">
          <mxGeometry x="530" y="310" width="80" height="40" as="geometry" />
        </mxCell>
        <mxCell id="YO1lThcP8_eCA4LxyVWl-17" value="IBDS" style="rounded=0;whiteSpace=wrap;html=1;" vertex="1" parent="1">
          <mxGeometry x="630" y="310" width="80" height="40" as="geometry" />
        </mxCell>
      </root>
    </mxGraphModel>
  </diagram>
</mxfile>
